<svg xmlns="http://www.w3.org/2000/svg" version="1.1" xmlns:xlink="http://www.w3.org/1999/xlink" xmlns:svgjs="http://svgjs.dev/svgjs" width="2000" height="479" viewBox="0 0 2000 479"><g transform="matrix(1,0,0,1,-1.2121212121212466,-0.1430088532147522)"><svg viewBox="0 0 396 95" data-background-color="#ffffff" preserveAspectRatio="xMidYMid meet" height="479" width="2000" xmlns="http://www.w3.org/2000/svg" xmlns:xlink="http://www.w3.org/1999/xlink"><g id="tight-bounds" transform="matrix(1,0,0,1,0.2400000000000091,0.028362924959083102)"><svg viewBox="0 0 395.52 94.94327415008185" height="94.94327415008185" width="395.52"><g><svg viewBox="0 0 507.7541170402741 121.88470452818439" height="94.94327415008185" width="395.52"><g transform="matrix(1,0,0,1,112.23411704027407,16.84513644347556)"><svg viewBox="0 0 395.52 88.19443164123327" height="88.19443164123327" width="395.52"><g id="textblocktransform"><svg viewBox="0 0 395.52 88.19443164123327" height="88.19443164123327" width="395.52" id="textblock"><g><svg viewBox="0 0 395.52 88.19443164123327" height="88.19443164123327" width="395.52"><g transform="matrix(1,0,0,1,0,0)"><svg width="395.52" viewBox="0 -35.05 170.73 35.8" height="88.19443164123327" data-palette-color="#ffffff"><g class="wordmark-text-0" data-fill-palette-color="primary" id="text-0"><path d="M8.5 0L8.5-32.5 0-32.5 0-35 20.1-35 20.1-32.5 11.3-32.5 11.3 0 8.5 0ZM23.15 0L23.15-25.05 25.95-25.05 25.8-23.3Q28.15-25.5 31.95-25.5L31.95-25.5Q33.3-25.5 35.65-25.05L35.65-25.05 34.9-22.5Q33.3-23 31.55-23L31.55-23Q29.25-23 27.6-22.15 25.95-21.3 25.95-19.6L25.95-19.6 25.95 0 23.15 0ZM57.85 0Q52.45 0.55 50.05 0.55L50.05 0.55Q44.8 0.55 41.7-1.4 38.6-3.35 38.6-8.45L38.6-8.45 38.6-12.6Q38.6-17.55 42.05-19.25L42.05-19.25Q43.7-20.1 46.25-20.1L46.25-20.1Q48.6-20.1 51-19.33 53.4-18.55 55.05-17.3L55.05-17.3Q55.05-20.05 53.45-21.68 51.85-23.3 47.3-23.3L47.3-23.3 47.45-25.45Q52.25-25.45 54.52-23.93 56.8-22.4 57.32-20.3 57.85-18.2 57.85-14.9L57.85-14.9 57.85 0ZM55.05-15.15Q53-16.1 50.67-16.8 48.35-17.5 46.4-17.5L46.4-17.5Q41.35-17.5 41.35-12.45L41.35-12.45 41.35-8.1Q41.35-4.85 43.6-3.38 45.85-1.9 50-1.9L50-1.9Q52.15-1.9 55.05-2.3L55.05-2.3 55.05-15.15ZM77.54-0.3Q74.44 0.5 71.54 0.5L71.54 0.5Q68.84 0.5 67.04-0.1L67.04-0.1Q64.09-1.1 62.77-3.18 61.44-5.25 61.44-9L61.44-9 61.44-15.4Q61.44-20.35 64.04-22.93 66.64-25.5 70.74-25.5L70.74-25.5Q73.99-25.5 77.44-23.9L77.44-23.9 76.64-21.85Q73.79-23 71.14-23L71.14-23Q68.04-23 66.14-21.23 64.24-19.45 64.24-15.7L64.24-15.7 64.24-8.45Q64.24-5 66.32-3.45 68.39-1.9 71.84-1.9L71.84-1.9Q74.09-1.9 76.94-2.55L76.94-2.55 77.54-0.3ZM82.69 0L82.69-35.05 92.09-35.05Q97.74-35.05 100.72-31.95 103.69-28.85 103.69-23.7L103.69-23.7 103.69-10Q103.69 0 93.09 0L93.09 0 82.69 0ZM100.89-24.2Q100.89-27.05 99.67-28.93 98.44-30.8 96.54-31.65 94.64-32.5 92.59-32.5L92.59-32.5 85.49-32.5 85.49-2.5 92.29-2.5Q95.94-2.5 98.42-3.93 100.89-5.35 100.89-9.5L100.89-9.5 100.89-24.2ZM130.14-9.2Q130.14-5 127.84-2.25 125.54 0.5 120.89 0.5L120.89 0.5Q116.24 0.5 113.86-2.27 111.49-5.05 111.49-9.2L111.49-9.2 111.49-15.8Q111.49-20.55 113.91-23.08 116.34-25.6 120.89-25.6L120.89-25.6Q125.24-25.6 127.69-22.98 130.14-20.35 130.14-15.8L130.14-15.8 130.14-9.2ZM127.34-15.8Q127.34-19.55 125.61-21.3 123.89-23.05 120.89-23.05L120.89-23.05Q117.79-23.05 116.04-21.3 114.29-19.55 114.29-15.8L114.29-15.8 114.29-8.7Q114.29-5.7 116.06-3.85 117.84-2 120.89-2L120.89-2Q123.99-2 125.66-3.83 127.34-5.65 127.34-8.7L127.34-8.7 127.34-15.8ZM149.69-0.3Q146.59 0.5 143.69 0.5L143.69 0.5Q140.99 0.5 139.19-0.1L139.19-0.1Q136.24-1.1 134.91-3.18 133.59-5.25 133.59-9L133.59-9 133.59-15.4Q133.59-20.35 136.19-22.93 138.79-25.5 142.89-25.5L142.89-25.5Q146.14-25.5 149.59-23.9L149.59-23.9 148.79-21.85Q145.94-23 143.29-23L143.29-23Q140.19-23 138.29-21.23 136.39-19.45 136.39-15.7L136.39-15.7 136.39-8.45Q136.39-5 138.46-3.45 140.54-1.9 143.99-1.9L143.99-1.9Q146.24-1.9 149.09-2.55L149.09-2.55 149.69-0.3ZM155.38-6.35Q155.68-4.1 157.63-2.98 159.58-1.85 161.98-1.85L161.98-1.85Q164.23-1.85 166.08-2.88 167.93-3.9 167.93-6.2L167.93-6.2Q167.93-7.7 167.06-8.68 166.18-9.65 164.88-10.25 163.58-10.85 161.38-11.55L161.38-11.55Q158.93-12.35 157.38-13.05 155.83-13.75 154.68-15.03 153.53-16.3 153.33-18.25L153.33-18.25 153.28-18.85Q153.28-20.5 154.21-22.08 155.13-23.65 157.06-24.65 158.98-25.65 161.88-25.65L161.88-25.65Q163.48-25.65 164.71-25.33 165.93-25 166.63-24.65 167.33-24.3 167.48-24.2L167.48-24.2 166.53-21.9Q166.38-22 165.81-22.3 165.23-22.6 164.18-22.9 163.13-23.2 161.88-23.2L161.88-23.2Q159.48-23.2 157.78-22.08 156.08-20.95 156.08-18.95L156.08-18.95Q156.08-17.05 157.63-16.05 159.18-15.05 162.38-14.05L162.38-14.05Q165.08-13.15 166.73-12.35 168.38-11.55 169.56-10.08 170.73-8.6 170.73-6.25L170.73-6.25Q170.73-3.25 168.51-1.25 166.28 0.75 161.98 0.75L161.98 0.75Q159.13 0.75 157.06-0.23 154.98-1.2 153.91-2.8 152.83-4.4 152.73-6.35L152.73-6.35 155.38-6.35Z" fill="#ffffff" data-fill-palette-color="primary"></path></g></svg></g></svg></g></svg></g></svg></g><g><svg viewBox="0 0 91.41352839613829 121.88470452818439" height="121.88470452818439" width="91.41352839613829"><g><svg xmlns="http://www.w3.org/2000/svg" xmlns:xlink="http://www.w3.org/1999/xlink" version="1.1" x="0" y="0" viewBox="0 0 75 100" style="enable-background:new 0 0 75 100;" xml:space="preserve" height="121.88470452818439" width="91.41352839613829" class="icon-icon-0" data-fill-palette-color="accent" id="icon-0"><path d="M43.75 0H0V100H75V31.244zM12.5 87.5V12.5H37.5V37.5H62.5V87.5z" fill="#3c8294" data-fill-palette-color="accent"></path></svg></g></svg></g></svg></g><defs></defs></svg><rect width="395.52" height="94.94327415008185" fill="none" stroke="none" visibility="hidden"></rect></g></svg></g></svg>